<svg width="18" height="18" viewBox="0 0 18 18" fill="none" xmlns="http://www.w3.org/2000/svg">
<path d="M4.23962 1.53376L16.184 7.19162C17.7091 7.91404 17.7091 10.0842 16.184 10.8066L4.23962 16.4644C2.82448 17.1348 1.22276 15.9924 1.39569 14.4361L1.9998 8.9991L1.39569 3.56209C1.22276 2.00579 2.82448 0.863426 4.23962 1.53376Z" fill="#3666FF"/>
<path d="M1.9998 8.9991L1.39569 3.56209C1.22276 2.00579 2.82448 0.863426 4.23962 1.53376L16.184 7.19162C17.7091 7.91404 17.7091 10.0842 16.184 10.8066L4.23962 16.4644C2.82448 17.1348 1.22276 15.9924 1.39569 14.4361L1.9998 8.9991ZM1.9998 8.9991H8.9998" stroke="black"/>
</svg>
